<svg id="Capa_1" enable-background="new 0 0 512 512" height="512" viewBox="0 0 512 512" width="512" xmlns="http://www.w3.org/2000/svg"><g><g><g><g><g><g><g><g><g><circle cx="256" cy="256" fill="#fe6a16" r="256"/></g></g></g></g></g></g></g></g><path d="m510.806 280.878-190.154-190.154-106.19 2.879-75.258 334.487 81.497 81.497c11.539 1.59 23.323 2.413 35.299 2.413 132.992 0 242.297-101.411 254.806-231.122z" fill="#e83c00"/><path d="m323.797 177.159c7.207-11.926 11.357-25.896 11.357-40.817 0-43.646-35.509-79.155-79.154-79.155s-79.154 35.509-79.154 79.155c0 14.921 4.15 28.892 11.357 40.817-18.156 6.012-31.291 23.147-31.291 43.293v120.988h33v-120.988c0-6.942 5.648-12.59 12.591-12.59h19.593c10.282 4.894 21.78 7.635 33.905 7.635s23.622-2.741 33.905-7.635h19.593c6.942 0 12.591 5.648 12.591 12.59v120.988h33v-120.988c-.002-20.146-13.137-37.281-31.293-43.293zm-103.951-40.818c0-19.936 16.219-36.155 36.154-36.155s36.154 16.219 36.154 36.155-16.218 36.155-36.154 36.155-36.154-16.219-36.154-36.155z" fill="#e9edf5"/><path d="m323.797 177.159c7.207-11.926 11.357-25.896 11.357-40.817 0-43.605-35.444-79.086-79.034-79.152v43c19.88.066 36.034 16.256 36.034 36.152s-16.154 36.085-36.033 36.151v43.001c12.081-.018 23.536-2.755 33.784-7.633h19.593c6.942 0 12.591 5.648 12.591 12.59v120.989h33v-120.988c-.001-20.146-13.136-37.281-31.292-43.293z" fill="#cdd2e1"/><g><g><path d="m193.948 433.314h-41.073c-11.329 0-20.513-9.184-20.513-20.513v-163.234h82.099v163.233c.001 11.329-9.184 20.514-20.513 20.514z" fill="#414952"/></g><g><path d="m359.124 433.314h-41.073c-11.329 0-20.513-9.184-20.513-20.513v-163.234h82.099v163.233c.001 11.329-9.183 20.514-20.513 20.514z" fill="#23272b"/></g></g></g></svg>