<svg id="Capa_1" enable-background="new 0 0 512 512" height="512" viewBox="0 0 512 512" width="512" xmlns="http://www.w3.org/2000/svg"><g><g><g><g><g><g><g><g><g><g><path d="m231.118 510.806c-129.709-12.51-231.118-121.815-231.118-254.806 0-141.385 114.615-256 256-256s256 114.615 256 256c0 132.973-101.182 242.256-230.866 254.791z" fill="#ffce00"/></g></g></g></g></g></g></g></g></g><path d="m261.401 413.666-5.336 97.133 25.068-.007c129.685-12.536 230.867-121.819 230.867-254.792 0-9.592-.528-19.06-1.555-28.378l-79.26-79.26-149.594 73.856-221.591-9.954z" fill="#ffa300"/><g><path d="m297.194 297.378c0 10.941-8.901 19.841-19.842 19.841h-5.91v-121.4h-30.631v121.401h-5.91c-10.941 0-19.842-8.9-19.842-19.841v-109.024h-30.631v109.023c0 26.558 20.62 48.391 46.691 50.332v163.096c8.187.79 16.487 1.194 24.881 1.194 8.481 0 16.865-.403 25.134-1.209v-163.081c26.071-1.94 46.691-23.773 46.691-50.332v-109.023h-30.631z" fill="#fff"/></g><g><path d="m297.194 188.355v109.023c0 10.941-8.901 19.841-19.842 19.841h-5.91v-121.4h-15.322v316.18c8.439-.004 16.784-.405 25.013-1.207v-163.082c26.071-1.94 46.691-23.773 46.691-50.332v-109.023z" fill="#e9edf5"/></g><g><g><path d="m300.236 233.044 8.217-31.358 130.948 26.719-8.216 31.358z" fill="#1cadb5"/></g><g><path d="m300.236 175.081 8.217 31.358 130.948-26.719-8.216-31.358z" fill="#1cadb5"/></g><g><path d="m361.737 136.86h32.185v134.404h-32.185z" fill="#00c8c8" transform="matrix(0 1 -1 0 581.892 -173.767)"/></g><g><path d="m325.054 262c-36.261 0-270.085-25.94-270.085-57.938s233.824-57.938 270.085-57.938 49.436 25.94 49.436 57.938-13.174 57.938-49.436 57.938z" fill="#fe6a16"/></g><g><path d="m325.054 146.125c-10.31 0-36.596 2.098-68.934 5.835v104.206c32.338 3.737 58.624 5.835 68.934 5.835 36.261 0 49.436-25.939 49.436-57.938s-13.174-57.938-49.436-57.938z" fill="#f24500"/></g></g></g></svg>