<svg id="Capa_1" enable-background="new 0 0 512 512" height="512" viewBox="0 0 512 512" width="512" xmlns="http://www.w3.org/2000/svg"><g><g><g><g><g><g><g><g><g><circle cx="256" cy="256" fill="#fe6a16" r="256"/></g></g></g></g></g></g></g></g><path d="m378.3 109.379-39.438-39.438-1.411 47.527 49.927 49.927-48.032 83.617-131.136-131.135-127.817 28.182 113.826 113.826-91.592 99.69 33.639 33.639-33.639 13.322 97.304 97.305c18.045 4.032 36.808 6.159 56.069 6.159 141.385 0 256-114.615 256-256 0-29.618-5.03-58.061-14.282-84.522l-71.573-71.573z" fill="#e83c00"/><g><path d="m270.183 193.067h190.444v29.001h-190.444z" fill="#414952" transform="matrix(.207 -.978 .978 .207 86.729 522.122)"/></g><g><path d="m426.146 128.905h-54.076c-21.684 0-41.385-11.942-51.415-31.167l-7.504-14.384 25.711-13.414 7.504 14.384c5.014 9.61 14.863 15.581 25.704 15.581h54.076z" fill="#333940"/></g><g><path d="m133.114 135.747h34.474v76.002h-34.474z" fill="#7e8596"/></g><g><path d="m362.23 379.937h-212.46c-38.502 0-69.713-31.212-69.713-69.713v-42.359c0-43.975 40.217-76.966 83.344-68.368l212.46 42.359c32.605 6.501 56.083 35.121 56.083 68.368-.001 38.501-31.213 69.713-69.714 69.713z" fill="#555a66"/></g><g><path d="m375.86 241.856-119.74-23.873v161.954h106.11c38.501 0 69.713-31.212 69.713-69.713 0-33.247-23.478-61.868-56.083-68.368z" fill="#333940"/></g><g><circle cx="256" cy="304.357" fill="#707789" r="60.771"/></g><g><path d="m316.771 304.357c0-33.523-27.143-60.703-60.651-60.768v121.536c33.508-.065 60.651-27.245 60.651-60.768z" fill="#555a66"/></g><g><path d="m102.626 372.14h306.748v36.396h-306.748z" fill="#707789"/></g><g><path d="m256.12 372.14h153.253v36.396h-153.253z" fill="#555a66"/></g><g><path d="m220.309 148.059h-139.916v-18.054c0-15.776 13.475-28.187 29.197-26.893l75.007 6.174c20.18 1.662 35.712 18.525 35.712 38.773z" fill="#636978"/></g><g><path d="m226.39 310.106h71.22v29h-71.22z" fill="#555a66"/></g><g><path d="m256.12 310.106h41.489v29h-41.489z" fill="#333940"/></g><g><path d="m244.348 276.646h29v48.168h-29z" fill="#555a66" transform="matrix(.991 -.131 .131 .991 -37.133 36.465)"/></g><g><path d="m270.071 274.955-13.951 1.842v48.586l20.255-2.675z" fill="#333940"/></g></g></svg>