<svg id="Capa_1" enable-background="new 0 0 512 512" height="512" viewBox="0 0 512 512" width="512" xmlns="http://www.w3.org/2000/svg"><g><g><g><g><g><g><g><g><circle cx="256" cy="256" fill="#7584f2" r="256"/></g></g></g></g></g></g></g><path d="m267.687 511.738c123.272-5.539 223.849-98.26 241.548-217.979l-233.253-233.253-39.964 23.891 32.576 32.576-.131 1.001-71.553 103.387 42.772 42.243-43.172 176.957z" fill="#4855b7"/><g><path d="m323.393 202.43v-46.472c0-14.211-11.521-25.732-25.732-25.732h-83.322c-14.212 0-25.732 11.521-25.732 25.732v46.472c0 10.89 6.765 20.2 16.321 23.957-9.556 3.757-16.321 13.067-16.321 23.957v171.673c0 14.212 11.521 25.732 25.732 25.732h83.322c14.212 0 25.732-11.521 25.732-25.732v-171.674c0-10.89-6.765-20.2-16.321-23.957 9.556-3.756 16.321-13.066 16.321-23.956z" fill="#a3d4ff"/></g><g><path d="m323.393 202.43v-46.472c0-14.211-11.521-25.732-25.732-25.732h-41.54v317.523h41.54c14.212 0 25.732-11.521 25.732-25.732v-171.674c0-10.89-6.765-20.2-16.321-23.957 9.556-3.756 16.321-13.066 16.321-23.956z" fill="#65b1fc"/></g><g><path d="m300.708 99.803h-32.979v-27.568h-23.457v27.569h-32.979c-6.501 0-11.771 5.27-11.771 11.771v23.414h112.957v-23.414c0-6.501-5.271-11.772-11.771-11.772z" fill="#fff"/></g><g><path d="m312.479 111.575c0-6.501-5.27-11.771-11.771-11.771h-32.979v-27.569h-11.608v62.754h56.358z" fill="#e9edf5"/></g><g><path d="m236.018 60.506h39.964v23.891h-39.964z" fill="#e9edf5"/></g><g><path d="m256.121 60.506h19.861v23.891h-19.861z" fill="#cdd2e1"/></g></g></svg>